<svg id="5742" data-name="5742" xmlns="http://www.w3.org/2000/svg" xmlns:xlink="http://www.w3.org/1999/xlink" width="16" height="16" viewBox="0 0 16 16">
  <defs>
    <clipPath id="clip-path">
      <rect id="23683" data-name="23683" width="16" height="16" fill="none"/>
    </clipPath>
  </defs>
  <g id="5741" data-name="5741" clip-path="url(#clip-path)">
    <path id="7351" data-name="7351" d="M4.37,33.176H1.779a.009.009,0,0,0-.009.009V44.147a.009.009,0,0,0,.009.009H12.741a.009.009,0,0,0,.009-.009V41.81a.668.668,0,0,1,.668-.668h.434a.668.668,0,0,1,.668.668v3.207a.916.916,0,0,1-.224.612.88.88,0,0,1-.661.3H.894A.894.894,0,0,1,0,45.032V32.3a.894.894,0,0,1,.894-.894H4.37a.668.668,0,0,1,.668.668v.434a.668.668,0,0,1-.668.668" transform="translate(0 -29.926)" fill="#000"/>
    <path id="7352" data-name="7352" d="M125.275,10.136a.791.791,0,0,1-.564-.232.818.818,0,0,1,.015-1.155l7.281-7.281-3.8-.032a.718.718,0,0,1-.521-1.2A.71.71,0,0,1,128.213,0l6,.052a.358.358,0,0,1,.353.353l.052,5.99a.718.718,0,0,1-.716.724l-.059,0a.714.714,0,0,1-.66-.709l-.032-3.8-7.281,7.281a.831.831,0,0,1-.591.247" transform="translate(-118.614 -0.001)" fill="#000"/>
  </g>
</svg>